<svg xmlns="http://www.w3.org/2000/svg" fill="white" viewBox="0 0 100 100" width="36" height="36">
  <g>
    <path
      d="M 231.87695 29.386719 C 224.89935 29.386719 218.15136 33.5778 211.63281 41.962891 C 205.20608 50.347981 199.51246 61.669174 194.55469 75.923828 C 189.59692 89.898979 185.60397 106.52874 182.57422 125.81445 C 181.36102 133.66294 180.41339 141.76279 179.70117 150.08789 L 13.058594 150.08789 L 8.1347656 324.19922 L 58.195312 324.54688 L 58.195312 210.21094 L 83.636719 212.29492 L 83.636719 291.87891 L 130.68945 302.65234 L 130.68945 218.20312 L 179.25977 218.20312 C 179.99423 228.39206 181.09748 238.26497 182.57422 247.81836 C 185.60397 266.82456 189.59692 283.45433 194.55469 297.70898 C 199.51246 311.96364 205.15922 323.28288 211.49414 331.66797 C 217.92088 340.05306 224.53219 344.24609 231.32617 344.24609 C 238.39558 344.24609 245.18848 340.05306 251.70703 331.66797 C 258.31739 323.28288 264.10278 312.10406 269.06055 298.12891 C 270.55123 293.84288 271.93802 289.29946 273.24609 284.55859 C 274.53184 289.13705 275.88899 293.53745 277.33984 297.70898 C 282.29761 311.96364 287.94437 323.28288 294.2793 331.66797 C 300.70603 340.05306 307.3154 344.24609 314.10938 344.24609 C 321.17878 344.24609 327.97364 340.05306 334.49219 331.66797 C 341.10254 323.28288 346.88598 312.10406 351.84375 298.12891 C 356.80152 283.87425 360.74956 267.10407 363.6875 247.81836 C 366.71725 228.53265 368.23242 207.84832 368.23242 185.76758 C 368.23242 163.96634 366.71725 143.56285 363.6875 124.55664 C 360.74956 105.55044 356.80152 89.059135 351.84375 75.083984 C 346.97779 61.108833 341.28612 50.068478 334.76758 41.962891 C 328.34084 33.5778 321.63776 29.386719 314.66016 29.386719 C 307.68256 29.386719 300.93456 33.5778 294.41602 41.962891 C 287.98928 50.347981 282.29761 61.669174 277.33984 75.923828 C 275.91565 79.938389 274.58149 84.197598 273.31641 88.650391 C 271.98833 83.902298 270.5778 79.360879 269.06055 75.083984 C 264.19459 61.108833 258.50097 50.068478 251.98242 41.962891 C 245.55569 33.5778 238.85455 29.386719 231.87695 29.386719 z M 230.63672 120.36328 C 233.57466 120.36328 236.3746 122.18091 239.03711 125.81445 C 241.69961 129.44799 244.04072 134.33921 246.06055 140.48828 C 248.17219 146.63735 249.82599 153.76551 251.01953 161.87109 C 252.21307 169.97668 252.80859 178.3608 252.80859 187.02539 C 252.80859 195.68998 252.16621 203.93563 250.88086 211.76172 C 249.68732 219.5878 248.08038 226.57554 246.06055 232.72461 C 244.04072 238.59417 241.69961 243.20651 239.03711 246.56055 C 236.46641 249.91458 233.8051 251.58984 231.05078 251.58984 C 228.29647 251.58984 225.54142 249.91458 222.78711 246.56055 C 220.1246 243.20651 217.73859 238.73264 215.62695 233.14258 C 213.51531 227.27301 211.76974 220.56611 210.39258 213.01953 C 209.56005 208.45743 208.98354 203.68747 208.6543 198.7168 L 208.6543 177.29688 C 208.94566 172.25055 209.42888 167.38347 210.11719 162.70898 C 211.31072 154.6034 212.91767 147.47524 214.9375 141.32617 C 217.04914 134.8976 219.4371 129.86791 222.09961 126.23438 C 224.85392 122.32133 227.69878 120.36328 230.63672 120.36328 z M 313.42188 120.36328 C 316.35981 120.36328 319.15976 122.18091 321.82227 125.81445 C 324.48477 129.44799 326.82587 134.33921 328.8457 140.48828 C 330.95734 146.63735 332.6092 153.76551 333.80273 161.87109 C 334.99627 169.97668 335.59375 178.3608 335.59375 187.02539 C 335.59375 195.68998 334.95136 203.93563 333.66602 211.76172 C 332.47248 219.5878 330.86553 226.57554 328.8457 232.72461 C 326.82587 238.59417 324.48477 243.20651 321.82227 246.56055 C 319.25157 249.91458 316.5883 251.58984 313.83398 251.58984 C 311.07967 251.58984 308.32658 249.91458 305.57227 246.56055 C 302.90976 243.20651 300.5218 238.73264 298.41016 233.14258 C 296.29851 227.27301 294.55489 220.56611 293.17773 213.01953 C 291.80058 205.47295 291.11133 197.36772 291.11133 188.70312 C 291.11133 179.47953 291.70881 170.81457 292.90234 162.70898 C 294.09588 154.6034 295.70282 147.47524 297.72266 141.32617 C 299.8343 134.8976 302.22031 129.86791 304.88281 126.23438 C 307.63713 122.32133 310.48394 120.36328 313.42188 120.36328 z "
      transform="scale(0.26458333)"></path>
  </g>
</svg>
